HIERARCHY
ROOT hip
{
  OFFSET 0 0 0
  CHANNELS 6 Xposition Yposition Zposition Zrotation Yrotation Xrotation
  JOINT abdomen
  {
    OFFSET 0 20.6881 -0.73152
    CHANNELS 3 Zrotation Xrotation Yrotation
    JOINT chest
    {
      OFFSET 0 11.7043 -0.48768
      CHANNELS 3 Zrotation Xrotation Yrotation
      JOINT neck
      {
        OFFSET 0 22.1894 -2.19456
        CHANNELS 3 Zrotation Xrotation Yrotation
        JOINT head
        {
          OFFSET -0.24384 7.07133 1.2192
          CHANNELS 3 Zrotation Xrotation Yrotation
          JOINT leftEye
          {
            OFFSET 4.14528 8.04674 8.04672
            CHANNELS 3 Zrotation Xrotation Yrotation
            End Site
            {
              OFFSET 1 0 0
            }
          }
          JOINT rightEye
          {
            OFFSET -3.6576 8.04674 8.04672
            CHANNELS 3 Zrotation Xrotation Yrotation
            End Site
            {
              OFFSET 1 0 0
            }
          }
        }
      }
      JOINT rCollar
      {
        OFFSET -2.68224 19.2634 -4.8768
        CHANNELS 3 Zrotation Xrotation Yrotation
        JOINT rShldr
        {
          OFFSET -8.77824 -1.95073 1.46304
          CHANNELS 3 Zrotation Xrotation Yrotation
          JOINT rForeArm
          {
            OFFSET -28.1742 -1.7115 0.48768
            CHANNELS 3 Zrotation Xrotation Yrotation
            JOINT rHand
            {
              OFFSET -22.5879 0.773209 7.07136
              CHANNELS 3 Zrotation Xrotation Yrotation
              JOINT rThumb1
              {
                OFFSET -1.2192 -0.487915 3.41376
                CHANNELS 3 Zrotation Xrotation Yrotation
                JOINT rThumb2
                {
                  OFFSET -3.37035 -0.52449 3.41376
                  CHANNELS 3 Zrotation Xrotation Yrotation
                  End Site
                  {
                    OFFSET -1.78271 -1.18214 1.43049
                  }
                }
              }
              JOINT rIndex1
              {
                OFFSET -7.75947 0.938293 5.60832
                CHANNELS 3 Zrotation Xrotation Yrotation
                JOINT rIndex2
                {
                  OFFSET -2.54057 -0.884171 1.56538
                  CHANNELS 3 Zrotation Xrotation Yrotation
                  End Site
                  {
                    OFFSET -1.62519 -0.234802 1.16502
                  }
                }
              }
              JOINT rMid1
              {
                OFFSET -8.24714 1.18213 3.41376
                CHANNELS 3 Zrotation Xrotation Yrotation
                JOINT rMid2
                {
                  OFFSET -3.10165 -0.590103 1.0647
                  CHANNELS 3 Zrotation Xrotation Yrotation
                  End Site
                  {
                    OFFSET -2.48547 -0.328903 0.83742
                  }
                }
              }
              JOINT rRing1
              {
                OFFSET -8.82822 0.546677 1.51678
                CHANNELS 3 Zrotation Xrotation Yrotation
                JOINT rRing2
                {
                  OFFSET -2.60934 -0.819778 -0.0198488
                  CHANNELS 3 Zrotation Xrotation Yrotation
                  End Site
                  {
                    OFFSET -2.33842 -0.294052 0.168128
                  }
                }
              }
              JOINT rPinky1
              {
                OFFSET -8.27202 -0.0477905 -0.4584
                CHANNELS 3 Zrotation Xrotation Yrotation
                JOINT rPinky2
                {
                  OFFSET -1.82734 -0.647385 -0.700984
                  CHANNELS 3 Zrotation Xrotation Yrotation
                  End Site
                  {
                    OFFSET -1.69225 -0.51767 -0.607171
                  }
                }
              }
            }
          }
        }
      }
      JOINT lCollar
      {
        OFFSET 2.68224 19.2634 -4.8768
        CHANNELS 3 Zrotation Xrotation Yrotation
        JOINT lShldr
        {
          OFFSET 8.77824 -1.95073 1.46304
          CHANNELS 3 Zrotation Xrotation Yrotation
          JOINT lForeArm
          {
            OFFSET 28.1742 -1.7115 0.48768
            CHANNELS 3 Zrotation Xrotation Yrotation
            JOINT lHand
            {
              OFFSET 22.5879 0.773209 7.07136
              CHANNELS 3 Zrotation Xrotation Yrotation
              JOINT lThumb1
              {
                OFFSET 1.2192 -0.487915 3.41376
                CHANNELS 3 Zrotation Xrotation Yrotation
                JOINT lThumb2
                {
                  OFFSET 3.37035 -0.52449 3.41376
                  CHANNELS 3 Zrotation Xrotation Yrotation
                  End Site
                  {
                    OFFSET 1.78271 -1.18214 1.43049
                  }
                }
              }
              JOINT lIndex1
              {
                OFFSET 7.75947 0.938293 5.60832
                CHANNELS 3 Zrotation Xrotation Yrotation
                JOINT lIndex2
                {
                  OFFSET 2.54057 -0.884171 1.56538
                  CHANNELS 3 Zrotation Xrotation Yrotation
                  End Site
                  {
                    OFFSET 1.62519 -0.234802 1.16502
                  }
                }
              }
              JOINT lMid1
              {
                OFFSET 8.24714 1.18213 3.41376
                CHANNELS 3 Zrotation Xrotation Yrotation
                JOINT lMid2
                {
                  OFFSET 3.10165 -0.590103 1.0647
                  CHANNELS 3 Zrotation Xrotation Yrotation
                  End Site
                  {
                    OFFSET 2.48547 -0.328903 0.83742
                  }
                }
              }
              JOINT lRing1
              {
                OFFSET 8.82822 0.546677 1.51678
                CHANNELS 3 Zrotation Xrotation Yrotation
                JOINT lRing2
                {
                  OFFSET 2.60934 -0.819778 -0.0198488
                  CHANNELS 3 Zrotation Xrotation Yrotation
                  End Site
                  {
                    OFFSET 2.33842 -0.294052 0.168128
                  }
                }
              }
              JOINT lPinky1
              {
                OFFSET 8.27202 -0.0477905 -0.4584
                CHANNELS 3 Zrotation Xrotation Yrotation
                JOINT lPinky2
                {
                  OFFSET 1.82734 -0.647385 -0.700984
                  CHANNELS 3 Zrotation Xrotation Yrotation
                  End Site
                  {
                    OFFSET 1.69225 -0.51767 -0.607171
                  }
                }
              }
            }
          }
        }
      }
    }
  }
  JOINT rButtock
  {
    OFFSET -8.77824 4.35084 1.2192
    CHANNELS 3 Zrotation Xrotation Yrotation
    JOINT rThigh
    {
      OFFSET 0 -1.70687 -2.19456
      CHANNELS 3 Zrotation Xrotation Yrotation
      JOINT rShin
      {
        OFFSET 0 -36.8199 0.73152
        CHANNELS 3 Zrotation Xrotation Yrotation
        JOINT rFoot
        {
          OFFSET 0.73152 -45.1104 -5.12064
          CHANNELS 3 Zrotation Xrotation Yrotation
          End Site
          {
            OFFSET -1.1221 -3.69964 12.103
          }
        }
      }
    }
  }
  JOINT lButtock
  {
    OFFSET 8.77824 4.35084 1.2192
    CHANNELS 3 Zrotation Xrotation Yrotation
    JOINT lThigh
    {
      OFFSET 0 -1.70687 -2.19456
      CHANNELS 3 Zrotation Xrotation Yrotation
      JOINT lShin
      {
        OFFSET 0 -36.8199 0.73152
        CHANNELS 3 Zrotation Xrotation Yrotation
        JOINT lFoot
        {
          OFFSET -0.73152 -45.1104 -5.12064
          CHANNELS 3 Zrotation Xrotation Yrotation
          End Site
          {
            OFFSET 1.1221 -3.69964 12.103
          }
        }
      }
    }
  }
}
MOTION
Frames:	4
Frame Time:	0.03333
0.0 0.0 0.0 0.0 0.0 0.0 0.0 0.0 0.0 0.0 0.0 0.0 0.0 0.0 0.0 0.0 0.0 0.0 0.0 0.0 0.0 0.0 0.0 0.0 0.0 0.0 0.0 0.0 0.0 0.0 0.0 0.0 0.0 0.0 0.0 0.0 0.0 0.0 0.0 0.0 0.0 0.0 0.0 0.0 0.0 0.0 0.0 0.0 0.0 0.0 0.0 0.0 0.0 0.0 0.0 0.0 0.0 0.0 0.0 0.0 0.0 0.0 0.0 0.0 0.0 0.0 0.0 0.0 0.0 0.0 0.0 0.0 0.0 0.0 0.0 0.0 0.0 0.0 0.0 0.0 0.0 0.0 0.0 0.0 0.0 0.0 0.0 0.0 0.0 0.0 0.0 0.0 0.0 0.0 0.0 0.0 0.0 0.0 0.0 0.0 0.0 0.0 0.0 0.0 0.0 0.0 0.0 0.0 0.0 0.0 0.0 0.0 0.0 0.0 0.0 0.0 0.0 0.0 0.0 0.0 0.0 0.0 0.0 0.0 0.0 0.0 0.0 0.0 0.0 0.0 0.0 0.0
-10.694099999999999 68.9451 -3.4601 -171.905996 7.307931 -171.764312 6.691758 -6.152192 47.590585 -6.36794 -6.476337 -26.634455 21.956053 12.66344 94.067475 -8.754843 7.958545 -62.590694 0.004255 0.0 0.003281 -0.00136 -0.0 0.004179 4.224152 -44.097077 -8.517662 64.496745 -70.550242 20.424715 -10.271027 -12.156057 -154.111399 -158.279222 10.20845 140.314255 -166.631304 -4.304843 89.771687 -137.192633 7.633097 67.888869 -1.162524 1.860664 0.669271 2.188537 12.452881 2.291582 -0.287489 0.832493 0.161483 -7.303124 26.197814 6.026152 0.003666 1.770945 0.55619 -78.39165 78.781538 91.667849 -25.539991 -38.085838 -24.601276 14.853339 39.173902 7.78282 3.768299 17.920885 -4.641695 4.982931 14.26958 -22.243337 4.483717 -18.236235 -37.498946 4.954075 3.383967 1.527115 -51.059368 -41.203962 -12.857332 11.676107 -17.724192 21.4079 160.101899 -33.161575 -122.701392 71.008663 57.620705 -55.5856 153.077188 14.207296 -138.692704 168.981132 -22.213169 -143.935396 0.01482 -1.322964 0.417099 -11.219051 -13.788367 1.714444 85.78416 -50.537939 84.155147 153.792361 36.28358 147.056878 -179.980032 75.749583 -0.013662 154.961484 54.916208 -150.2805 -24.234139 -49.559352 -48.750119 -149.217778 23.219039 -174.087626 179.99408 75.747828 0.006108 -147.522293 38.832649 -0.0 38.533689 42.543974 45.209415 -132.11752 52.342968 49.485089
-16.0366 68.4274 -5.2665999999999995 -174.321633 9.736164 -172.518361 3.974135 -4.556601 41.169498 -5.923985 -8.683085 -20.418287 21.757795 13.378735 96.324295 -8.918447 8.479014 -63.140662 -0.000316 0.0 -0.001476 -0.000316 0.0 -0.001476 -82.877586 68.300115 86.000585 132.117645 -47.779867 138.074411 147.169686 -14.159225 5.15627 -108.403313 54.43954 88.046812 169.030979 -27.077767 86.617839 170.691635 -31.863327 109.771217 -4.706245 7.223963 2.855634 -84.33494 47.628324 65.295028 23.90629 -61.33339 1.400451 -163.178041 -3.903087 143.14199 -145.117879 0.184964 -179.187484 -152.419761 -24.844482 -175.37606 -59.992184 -51.221779 -58.614704 -160.737228 58.720406 -148.749782 147.865651 28.56003 -152.690286 83.578809 -84.165366 92.621801 -172.161987 41.615273 -115.846451 -175.785155 -8.542548 -143.974497 4.034729 3.931628 -0.754927 177.167674 -76.106564 -102.097268 90.226333 41.073124 -75.796517 8.087678 21.429784 -0.511046 -3.624182 -11.07408 1.751878 164.031544 -6.970595 -143.564485 0.014334 -1.323218 0.415452 156.035662 -14.443352 -173.566241 128.961693 -23.654358 126.60662 147.4505 13.474049 142.363991 -179.997505 75.749216 -0.001707 154.402652 49.201781 145.305464 40.389949 -44.120701 -63.956184 -11.994687 -73.583372 -100.846927 -179.997505 75.749216 -0.001707 -152.640701 42.998159 28.200888 38.872289 30.957217 -62.055356 -6.925875 -7.506125 10.996241
-20.769399999999997 67.6694 -7.1202000000000005 -177.512392 10.454177 -173.097994 3.070552 -4.096056 -45.113137 6.769936 -8.511842 65.959716 21.259286 15.085164 105.570447 -9.698519 9.825761 -71.004359 -0.000127 0.0 -0.002576 0.000127 0.0 0.001411 -5.824925 24.937259 6.989987 77.489997 -43.206938 63.456748 -161.015438 -77.968776 48.456932 -162.309445 11.606842 139.162057 -7.758162 7.4392 1.682425 -161.333587 -66.770801 110.053018 -127.85304 18.70232 107.505923 1.01741 12.167312 -5.916517 -0.058614 0.16768 0.032469 -13.369178 36.411848 10.633312 -145.120002 0.226738 -179.199231 11.439656 18.189671 -6.886392 -157.330943 57.2459 -150.512971 -156.186233 36.923186 -146.377758 155.614141 -4.236251 -161.991469 160.349376 -11.627185 178.982976 74.932601 38.34124 -60.915474 -30.038154 -58.892506 -17.775499 0.544185 0.536087 -0.086407 64.308722 28.185265 -58.786084 151.352448 -17.158824 -121.132638 -0.779879 19.56909 5.422996 36.03719 51.723026 -29.831895 171.965749 -31.37692 -143.988706 74.842083 72.960701 -92.828103 -5.110201 28.347499 0.715473 55.230155 -50.540036 53.896937 1.194097 -11.129429 4.602423 -0.008667 0.000194 -0.008667 -17.838926 -24.927705 -8.053453 41.960228 66.173539 -157.847937 173.001854 58.13521 -85.472003 -0.00031 -7.6e-05 0.000398 16.716477 -28.754143 85.551597 49.889809 15.032299 -85.679435 -155.895765 -31.121272 -15.592925
